# xmcd
#
# Track frame offsets:
#	150
#	69600
#	123895
#	187307
#	265517
#	266667
#	267712
#	268330
#	268982
#	269872
#	270530
#	271417
#	272565
#	273290
#	274025
#	277120
#	279985
#	280902
#
# Disc length: 3769 seconds
#
# Revision: 0
# Processed by: cddbd v1.4PL0 Copyright (c) Steve Scherf et al.
# Submitted via: dBpowerAMP V4.0
#
DISCID=3f0eb712
DTITLE=The Beatles - The long and winding Road  CD 12/12
DYEAR=1900
DGENRE=Blues
TTITLE0=Spur 1
TTITLE1=Spur 2
TTITLE2=Spur 3
TTITLE3=Spur 4
TTITLE4=Spur 5
TTITLE5=Spur 6
TTITLE6=Spur 7
TTITLE7=Spur 8
TTITLE8=Spur 9
TTITLE9=Spur 10
TTITLE10=Spur 11
TTITLE11=Spur 12
TTITLE12=Spur 13
TTITLE13=Spur 14
TTITLE14=Spur 15
TTITLE15=Spur 16
TTITLE16=Spur 17
TTITLE17=Spur 18
EXTD=Special Edition
EXTT0=
EXTT1=
EXTT2=
EXTT3=
EXTT4=
EXTT5=
EXTT6=
EXTT7=
EXTT8=
EXTT9=
EXTT10=
EXTT11=
EXTT12=
EXTT13=
EXTT14=
EXTT15=
EXTT16=
EXTT17=
PLAYORDER=
